<svg version="1.1" viewBox="0.0 0.0 432.8608923884514 411.745406824147" fill="none" stroke="none" stroke-linecap="square" stroke-miterlimit="10" xmlns:xlink="http://www.w3.org/1999/xlink" xmlns="http://www.w3.org/2000/svg"><clipPath id="p.0"><path d="m0 0l432.8609 0l0 411.7454l-432.8609 0l0 -411.7454z" clip-rule="nonzero"/></clipPath><g clip-path="url(#p.0)"><path fill="#000000" fill-opacity="0.0" d="m0 0l432.8609 0l0 411.7454l-432.8609 0z" fill-rule="evenodd"/><path fill="#ffffff" d="m16.467192 115.119194l0 0c0 -29.98053 24.304022 -54.28455 54.284546 -54.28455l284.81674 0c14.397156 0 28.20462 5.7192497 38.38495 15.899578c10.180328 10.180328 15.899597 23.987816 15.899597 38.38497l0 217.13168c0 29.98053 -24.304016 54.284546 -54.284546 54.284546l-284.81674 0c-29.980526 0 -54.284546 -24.304016 -54.284546 -54.284546z" fill-rule="evenodd"/><path stroke="#193cb8" stroke-width="24.0" stroke-linejoin="round" stroke-linecap="butt" d="m16.467192 115.119194l0 0c0 -29.98053 24.304022 -54.28455 54.284546 -54.28455l284.81674 0c14.397156 0 28.20462 5.7192497 38.38495 15.899578c10.180328 10.180328 15.899597 23.987816 15.899597 38.38497l0 217.13168c0 29.98053 -24.304016 54.284546 -54.284546 54.284546l-284.81674 0c-29.980526 0 -54.284546 -24.304016 -54.284546 -54.284546z" fill-rule="evenodd"/><path fill="#000000" fill-opacity="0.0" d="m16.467192 137.22835l388.8189 -0.9133911" fill-rule="evenodd"/><path stroke="#193cb8" stroke-width="24.0" stroke-linejoin="round" stroke-linecap="butt" d="m16.467192 137.22835l388.8189 -0.9133911" fill-rule="evenodd"/><path fill="#193cb8" d="m114.065575 15.548556l0 0c1.1799698 0 2.136528 0.95655537 2.136528 2.1365252l0 65.270256c0 0.56664276 -0.22509766 1.1100769 -0.6257782 1.5107498c-0.4006729 0.40068054 -0.94410706 0.6257782 -1.5107498 0.6257782l-8.545845 0c-1.1799698 0 -2.136528 -0.9565582 -2.136528 -2.136528l0 -65.270256c0 -1.1799698 0.9565582 -2.1365252 2.136528 -2.1365252z" fill-rule="evenodd"/><path stroke="#193cb8" stroke-width="24.0" stroke-linejoin="round" stroke-linecap="butt" d="m114.065575 15.548556l0 0c1.1799698 0 2.136528 0.95655537 2.136528 2.1365252l0 65.270256c0 0.56664276 -0.22509766 1.1100769 -0.6257782 1.5107498c-0.4006729 0.40068054 -0.94410706 0.6257782 -1.5107498 0.6257782l-8.545845 0c-1.1799698 0 -2.136528 -0.9565582 -2.136528 -2.136528l0 -65.270256c0 -1.1799698 0.9565582 -2.1365252 2.136528 -2.1365252z" fill-rule="evenodd"/><path fill="#193cb8" d="m315.78473 15.548556l0 0c1.1799622 0 2.1365356 0.95655537 2.1365356 2.1365252l0 65.270256c0 0.56664276 -0.22509766 1.1100769 -0.62579346 1.5107498c-0.40066528 0.40068054 -0.9440918 0.6257782 -1.5107422 0.6257782l-8.545837 0c-1.1799622 0 -2.1365356 -0.9565582 -2.1365356 -2.136528l0 -65.270256c0 -1.1799698 0.9565735 -2.1365252 2.1365356 -2.1365252z" fill-rule="evenodd"/><path stroke="#193cb8" stroke-width="24.0" stroke-linejoin="round" stroke-linecap="butt" d="m315.78473 15.548556l0 0c1.1799622 0 2.1365356 0.95655537 2.1365356 2.1365252l0 65.270256c0 0.56664276 -0.22509766 1.1100769 -0.62579346 1.5107498c-0.40066528 0.40068054 -0.9440918 0.6257782 -1.5107422 0.6257782l-8.545837 0c-1.1799622 0 -2.1365356 -0.9565582 -2.1365356 -2.136528l0 -65.270256c0 -1.1799698 0.9565735 -2.1365252 2.1365356 -2.1365252z" fill-rule="evenodd"/><path fill="#193cb8" d="m64.95538 176.72191l0 0c0 -3.6210785 2.9354706 -6.556549 6.5565567 -6.556549l26.225464 0l0 0c1.7389069 0 3.4065933 0.69078064 4.6361847 1.9203644c1.229599 1.229599 1.920372 2.8972778 1.920372 4.6361847l0 26.225464c0 3.6210938 -2.9354706 6.5565643 -6.5565567 6.5565643l-26.225464 0c-3.6210861 0 -6.5565567 -2.9354706 -6.5565567 -6.5565643z" fill-rule="evenodd"/><path fill="#193cb8" d="m147.90027 176.72191l0 0c0 -3.6210785 2.9354706 -6.556549 6.556549 -6.556549l26.225464 0l0 0c1.7389069 0 3.406601 0.69078064 4.6361847 1.9203644c1.229599 1.229599 1.9203796 2.8972778 1.9203796 4.6361847l0 26.225464c0 3.6210938 -2.9354706 6.5565643 -6.5565643 6.5565643l-26.225464 0c-3.6210785 0 -6.556549 -2.9354706 -6.556549 -6.5565643z" fill-rule="evenodd"/><path fill="#193cb8" d="m230.84514 176.72191l0 0c0 -3.6210785 2.9354858 -6.556549 6.5565643 -6.556549l26.225464 0l0 0c1.7389221 0 3.4065857 0.69078064 4.6362 1.9203644c1.2295837 1.229599 1.9203491 2.8972778 1.9203491 4.6361847l0 26.225464c0 3.6210938 -2.9354553 6.5565643 -6.556549 6.5565643l-26.225464 0c-3.6210785 0 -6.5565643 -2.9354706 -6.5565643 -6.5565643z" fill-rule="evenodd"/><path fill="#193cb8" d="m313.79004 176.72191l0 0c0 -3.6210785 2.9354553 -6.556549 6.556549 -6.556549l26.225464 0l0 0c1.7388916 0 3.4065857 0.69078064 4.6361694 1.9203644c1.2296143 1.229599 1.9203796 2.8972778 1.9203796 4.6361847l0 26.225464c0 3.6210938 -2.9354553 6.5565643 -6.556549 6.5565643l-26.225464 0c-3.6210938 0 -6.556549 -2.9354706 -6.556549 -6.5565643z" fill-rule="evenodd"/><path fill="#193cb8" d="m64.95538 248.99751l0 0c0 -3.6210938 2.9354706 -6.5565643 6.5565567 -6.5565643l26.225464 0l0 0c1.7389069 0 3.4065933 0.69078064 4.6361847 1.9203644c1.229599 1.229599 1.920372 2.8972778 1.920372 4.6362l0 26.225449c0 3.6210938 -2.9354706 6.5565796 -6.5565567 6.5565796l-26.225464 0c-3.6210861 0 -6.5565567 -2.9354858 -6.5565567 -6.5565796z" fill-rule="evenodd"/><path fill="#193cb8" d="m147.90027 248.99751l0 0c0 -3.6210938 2.9354706 -6.5565643 6.556549 -6.5565643l26.225464 0l0 0c1.7389069 0 3.406601 0.69078064 4.6361847 1.9203644c1.229599 1.229599 1.9203796 2.8972778 1.9203796 4.6362l0 26.225449c0 3.6210938 -2.9354706 6.5565796 -6.5565643 6.5565796l-26.225464 0c-3.6210785 0 -6.556549 -2.9354858 -6.556549 -6.5565796z" fill-rule="evenodd"/><path fill="#193cb8" d="m230.84514 248.99751l0 0c0 -3.6210938 2.9354858 -6.5565643 6.5565643 -6.5565643l26.225464 0l0 0c1.7389221 0 3.4065857 0.69078064 4.6362 1.9203644c1.2295837 1.229599 1.9203491 2.8972778 1.9203491 4.6362l0 26.225449c0 3.6210938 -2.9354553 6.5565796 -6.556549 6.5565796l-26.225464 0c-3.6210785 0 -6.5565643 -2.9354858 -6.5565643 -6.5565796z" fill-rule="evenodd"/><path fill="#193cb8" d="m313.79004 248.99751l0 0c0 -3.6210938 2.9354553 -6.5565643 6.556549 -6.5565643l26.225464 0l0 0c1.7388916 0 3.4065857 0.69078064 4.6361694 1.9203644c1.2296143 1.229599 1.9203796 2.8972778 1.9203796 4.6362l0 26.225449c0 3.6210938 -2.9354553 6.5565796 -6.556549 6.5565796l-26.225464 0c-3.6210938 0 -6.556549 -2.9354858 -6.556549 -6.5565796z" fill-rule="evenodd"/><path fill="#193cb8" d="m64.95538 321.2731l0 0c0 -3.6210938 2.9354706 -6.5565796 6.5565567 -6.5565796l26.225464 0l0 0c1.7389069 0 3.4065933 0.6907959 4.6361847 1.9203796c1.229599 1.2296143 1.920372 2.8972778 1.920372 4.6362l0 26.225464c0 3.6210938 -2.9354706 6.556549 -6.5565567 6.556549l-26.225464 0c-3.6210861 0 -6.5565567 -2.9354553 -6.5565567 -6.556549z" fill-rule="evenodd"/><path fill="#193cb8" d="m147.90027 321.2731l0 0c0 -3.6210938 2.9354706 -6.5565796 6.556549 -6.5565796l26.225464 0l0 0c1.7389069 0 3.406601 0.6907959 4.6361847 1.9203796c1.229599 1.2296143 1.9203796 2.8972778 1.9203796 4.6362l0 26.225464c0 3.6210938 -2.9354706 6.556549 -6.5565643 6.556549l-26.225464 0c-3.6210785 0 -6.556549 -2.9354553 -6.556549 -6.556549z" fill-rule="evenodd"/></g></svg>