<svg version="1.1" viewBox="0.0 0.0 206.76115485564304 273.5459317585302" fill="none" stroke="none" stroke-linecap="square" stroke-miterlimit="10" xmlns:xlink="http://www.w3.org/1999/xlink" xmlns="http://www.w3.org/2000/svg"><clipPath id="p.0"><path d="m0 0l206.76115 0l0 273.54593l-206.76115 0l0 -273.54593z" clip-rule="nonzero"/></clipPath><g clip-path="url(#p.0)"><path fill="#000000" fill-opacity="0.0" d="m0 0l206.76115 0l0 273.54593l-206.76115 0z" fill-rule="evenodd"/><path fill="#ffffff" d="m15.551181 44.67775l0 0c0 -16.084711 13.039233 -29.123943 29.12394 -29.123943l116.49226 0l0 0c7.7241516 0 15.131943 3.068406 20.59375 8.530206c5.461792 5.4617977 8.530197 12.869587 8.530197 20.593739l0 178.69699c0 16.084717 -13.03923 29.123947 -29.123947 29.123947l-116.49226 0c-16.084707 0 -29.12394 -13.03923 -29.12394 -29.123947z" fill-rule="evenodd"/><path stroke="#193cb8" stroke-width="24.0" stroke-linejoin="round" stroke-linecap="butt" d="m15.551181 44.67775l0 0c0 -16.084711 13.039233 -29.123943 29.12394 -29.123943l116.49226 0l0 0c7.7241516 0 15.131943 3.068406 20.59375 8.530206c5.461792 5.4617977 8.530197 12.869587 8.530197 20.593739l0 178.69699c0 16.084717 -13.03923 29.123947 -29.123947 29.123947l-116.49226 0c-16.084707 0 -29.12394 -13.03923 -29.12394 -29.123947z" fill-rule="evenodd"/><path fill="#193cb8" d="m40.14173 54.529236l0 0c0 -2.0613213 1.6710358 -3.732357 3.7323608 -3.732357l115.5904 0c0.9898834 0 1.9392242 0.39323044 2.6391754 1.0931816c0.6999512 0.699955 1.0931854 1.6492958 1.0931854 2.6391754l0 14.928986c0 2.061325 -1.6710358 3.7323608 -3.7323608 3.7323608l-115.5904 0c-2.061325 0 -3.7323608 -1.6710358 -3.7323608 -3.7323608z" fill-rule="evenodd"/><path fill="#193cb8" d="m40.14173 102.55023l0 0c0 -2.061325 1.6710358 -3.7323532 3.7323608 -3.7323532l115.5904 0c0.9898834 0 1.9392242 0.39322662 2.6391754 1.0931778c0.6999512 0.6999588 1.0931854 1.649292 1.0931854 2.6391754l0 14.928986c0 2.061325 -1.6710358 3.7323608 -3.7323608 3.7323608l-115.5904 0c-2.061325 0 -3.7323608 -1.6710358 -3.7323608 -3.7323608z" fill-rule="evenodd"/><path fill="#193cb8" d="m40.14173 150.57123l0 0c0 -2.061325 1.6710358 -3.7323608 3.7323608 -3.7323608l115.5904 0c0.9898834 0 1.9392242 0.39323425 2.6391754 1.0931854c0.6999512 0.6999512 1.0931854 1.649292 1.0931854 2.6391754l0 14.928986c0 2.061325 -1.6710358 3.7323608 -3.7323608 3.7323608l-115.5904 0c-2.061325 0 -3.7323608 -1.6710358 -3.7323608 -3.7323608z" fill-rule="evenodd"/><path fill="#193cb8" d="m42.645668 198.59222l0 0c0 -2.061325 1.6710358 -3.7323456 3.7323608 -3.7323456l115.5904 0c0.9898834 0 1.9392242 0.393219 2.6391754 1.0931702c0.6999512 0.6999512 1.0931854 1.649292 1.0931854 2.6391754l0 14.928986c0 2.061325 -1.6710358 3.7323608 -3.7323608 3.7323608l-115.5904 0c-2.061325 0 -3.7323608 -1.6710358 -3.7323608 -3.7323608z" fill-rule="evenodd"/></g></svg>