<?xml version="1.0" encoding="UTF-8"?>
<svg xmlns="http://www.w3.org/2000/svg" viewBox="82.814 82.814 334.372 334.372" width="334.372" height="334.372"><ellipse style="stroke: rgb(0, 0, 0); fill: rgb(25, 60, 184); stroke-width: 0px;" cx="250" cy="250" rx="167.186" ry="167.186"/><g id="Hammer--Streamline-Ionic-Filled" style="" transform="matrix(4.824942111968994, 0, 0, 4.824942111968994, -576.1875, -756.4491577148438)"><desc>
    Hammer Streamline Icon: https://streamlinehq.com
  </desc><path d="M 173.497 207.355 L 171.05 204.906 C 170.489 204.345 169.729 204.029 168.936 204.027 C 168.143 204.025 167.381 204.337 166.818 204.895 L 149.799 220.6 C 149.18 221.184 148.773 221.929 148.735 222.762 C 148.717 223.176 148.785 223.588 148.933 223.974 C 149.082 224.36 149.308 224.712 149.599 225.007 L 153.255 228.703 C 153.257 228.705 153.259 228.708 153.262 228.71 C 153.827 229.273 154.591 229.59 155.389 229.593 L 155.499 229.593 C 156.333 229.562 157.079 229.171 157.672 228.546 L 173.487 211.605 C 173.767 211.327 173.99 210.996 174.143 210.632 C 174.295 210.268 174.374 209.877 174.375 209.482 C 174.376 209.087 174.299 208.696 174.148 208.331 C 173.998 207.966 173.776 207.634 173.497 207.355 L 173.497 207.355 Z" stroke-width="1" style="stroke-width: 1px; fill: rgb(255, 255, 255);"/><path d="M 193.171 202.405 L 193.142 202.376 L 189.93 199.196 C 189.741 199.009 189.518 198.86 189.272 198.759 C 189.026 198.659 188.763 198.608 188.497 198.609 C 188.067 198.61 187.647 198.745 187.298 198.997 C 187.298 198.957 187.304 198.918 187.306 198.883 C 187.349 198.274 187.414 197.353 186.819 196.519 C 186.111 195.565 185.334 194.664 184.494 193.824 C 184.492 193.822 184.489 193.819 184.486 193.817 C 183.238 192.587 180.52 190.27 176.357 188.573 C 174.778 187.924 173.087 187.592 171.38 187.593 C 168.422 187.593 166.172 188.928 165.31 189.719 C 164.822 190.185 164.377 190.694 163.981 191.24 C 163.791 191.501 163.691 191.817 163.696 192.14 C 163.7 192.463 163.808 192.776 164.005 193.032 C 164.201 193.288 164.475 193.474 164.786 193.563 C 165.097 193.651 165.427 193.636 165.729 193.522 C 165.992 193.423 166.261 193.341 166.534 193.275 C 167.102 193.155 167.685 193.118 168.263 193.167 C 169.5 193.269 170.962 193.883 171.609 194.394 C 172.706 195.277 173.234 196.465 173.321 198.246 C 173.338 198.605 172.597 199.947 171.446 201.479 C 171.227 201.768 171.12 202.127 171.145 202.489 C 171.17 202.851 171.325 203.191 171.582 203.448 L 174.808 206.674 C 175.079 206.945 175.444 207.103 175.827 207.114 C 176.211 207.124 176.584 206.988 176.87 206.732 C 177.783 205.917 179.172 204.689 179.657 204.388 C 180.378 203.945 180.894 203.859 181.036 203.844 C 181.403 203.808 181.772 203.886 182.094 204.067 C 182.096 204.083 182.094 204.1 182.089 204.115 C 182.084 204.13 182.076 204.144 182.065 204.156 L 181.894 204.319 L 181.866 204.345 C 181.678 204.533 181.528 204.756 181.426 205.002 C 181.324 205.248 181.272 205.511 181.273 205.777 C 181.273 206.043 181.326 206.307 181.429 206.552 C 181.532 206.798 181.682 207.021 181.871 207.208 L 185.083 210.387 C 185.271 210.574 185.494 210.723 185.74 210.823 C 185.986 210.924 186.25 210.975 186.515 210.973 C 187.049 210.974 187.561 210.765 187.942 210.392 L 193.145 205.252 C 193.163 205.235 193.181 205.216 193.198 205.197 C 193.547 204.814 193.738 204.314 193.733 203.796 C 193.728 203.278 193.528 202.781 193.171 202.405 L 193.171 202.405 Z" stroke-width="1" style="stroke-width: 1px; fill: rgb(255, 255, 255);"/></g></svg>