<svg version="1.1" viewBox="0.0 0.0 233.29133858267716 255.246719160105" fill="none" stroke="none" stroke-linecap="square" stroke-miterlimit="10" xmlns:xlink="http://www.w3.org/1999/xlink" xmlns="http://www.w3.org/2000/svg"><clipPath id="p.0"><path d="m0 0l233.29134 0l0 255.24672l-233.29134 0l0 -255.24672z" clip-rule="nonzero"/></clipPath><g clip-path="url(#p.0)"><path fill="#000000" fill-opacity="0.0" d="m0 0l233.29134 0l0 255.24672l-233.29134 0z" fill-rule="evenodd"/><path fill="#193cb8" d="m171.73184 57.244095l0 0c31.615036 31.615044 31.615036 82.87315 0 114.48819q-28.622055 28.62204 -57.244095 57.244095q-28.622047 -28.622055 -57.244095 -57.244095l0 0c-31.61504 -31.615036 -31.61504 -82.873146 0 -114.48819l0 0c31.615044 -31.61504 82.87315 -31.61504 114.48819 0z" fill-rule="evenodd"/><path fill="#ffffff" d="m86.125984 110.37795l0 0c0 -15.664017 12.698189 -28.362206 28.362206 -28.362206l0 0c7.5221252 0 14.73616 2.9881516 20.0551 8.307098c5.3189545 5.318947 8.307098 12.532982 8.307098 20.055107l0 0c0 15.664017 -12.698181 28.362206 -28.362198 28.362206l0 0c-15.664017 0 -28.362206 -12.698189 -28.362206 -28.362206z" fill-rule="evenodd"/></g></svg>