<svg version="1.1" viewBox="0.0 0.0 30.0 25.0" fill="none" stroke="none" stroke-linecap="square" stroke-miterlimit="10" xmlns:xlink="http://www.w3.org/1999/xlink" xmlns="http://www.w3.org/2000/svg"><clipPath id="p.0"><path d="m0 0l30.0 0l0 25.0l-30.0 0l0 -25.0z" clip-rule="nonzero"/></clipPath><g clip-path="url(#p.0)"><path fill="#000000" fill-opacity="0.0" d="m0 0l30.0 0l0 25.0l-30.0 0z" fill-rule="evenodd"/><path fill="#000000" fill-opacity="0.0" d="m8.525974 7.2230973l0 0c0 -3.2702217 2.9048615 -5.92126 6.4881887 -5.92126l0 0c3.5833273 0 6.4881887 2.6510382 6.4881887 5.92126l0 0c0 3.2702212 -2.9048615 5.9212594 -6.4881887 5.9212594l0 0c-3.5833273 0 -6.4881887 -2.6510382 -6.4881887 -5.9212594z" fill-rule="evenodd"/><path stroke="#000000" stroke-width="1.805774278215223" stroke-linejoin="round" stroke-linecap="butt" d="m8.525974 7.2230973l0 0c0 -3.2702217 2.9048615 -5.92126 6.4881887 -5.92126l0 0c3.5833273 0 6.4881887 2.6510382 6.4881887 5.92126l0 0c0 3.2702212 -2.9048615 5.9212594 -6.4881887 5.9212594l0 0c-3.5833273 0 -6.4881887 -2.6510382 -6.4881887 -5.9212594z" fill-rule="evenodd"/><path fill="#000000" fill-opacity="0.0" d="m2.1496062 24.507301l0 0c0 -6.3056126 5.7533174 -11.417322 12.850393 -11.417322l0 0c7.0970764 0 12.850393 5.1117096 12.850393 11.417322l0 0c0 6.3056145 -5.753317 11.417324 -12.850393 11.417324l0 0c-7.0970764 0 -12.850393 -5.1117096 -12.850393 -11.417324z" fill-rule="evenodd"/><path stroke="#000000" stroke-width="1.805774278215223" stroke-linejoin="round" stroke-linecap="butt" d="m2.1496062 24.507301l0 0c0 -6.3056126 5.7533174 -11.417322 12.850393 -11.417322l0 0c7.0970764 0 12.850393 5.1117096 12.850393 11.417322l0 0c0 6.3056145 -5.753317 11.417324 -12.850393 11.417324l0 0c-7.0970764 0 -12.850393 -5.1117096 -12.850393 -11.417324z" fill-rule="evenodd"/></g></svg>